<svg width="94" height="94" viewBox="0 0 94 94" fill="none" xmlns="http://www.w3.org/2000/svg">
<g clip-path="url(#clip0)">
<path d="M84.9105 94.0003H9.10946C4.08966 94.0003 0.0198975 89.9306 0.0198975 84.9108V41.2734C0.0198975 36.2536 4.08966 32.1838 9.10946 32.1838H84.9105C89.9303 32.1838 94.0001 36.2536 94.0001 41.2734V84.9108C94.0001 89.9306 89.9303 94.0003 84.9105 94.0003Z" fill="#6770E6"/>
<path d="M84.9105 32.1838H9.10946C4.08966 32.1838 0.0198975 36.2536 0.0198975 41.2734V44.7394C0.0198975 39.7196 4.08966 35.6499 9.10946 35.6499H84.9105C89.9303 35.6499 94.0001 39.7196 94.0001 44.7394V41.2734C94.0001 36.2536 89.9303 32.1838 84.9105 32.1838Z" fill="#8F95E6"/>
<path d="M9.10946 94.0004H84.9098C89.9303 94.0004 94.0001 89.9306 94.0001 84.9108V81.4441C94.0001 86.4646 89.9303 90.5336 84.9098 90.5336H9.10946C4.08894 90.5336 0.0198975 86.4646 0.0198975 81.4441V84.9108C0.0198975 89.9306 4.08894 94.0004 9.10946 94.0004Z" fill="#5861C7"/>
<path d="M16.4725 42.7742C16.2158 42.7742 15.9993 42.9914 15.9993 43.2481V52.4366C15.9993 52.6933 16.2158 52.9106 16.4725 52.9106H20.9151C21.1725 52.9106 21.389 52.6933 21.389 52.4366V43.2481C21.389 42.9914 21.1725 42.7742 20.9151 42.7742H16.4725Z" fill="#69EBFC"/>
<path d="M10.4933 45.2944H14.206V50.391H10.4933V45.2944Z" fill="#69EBFC"/>
<path d="M23.1823 45.2944H26.8949V50.391H23.1823V45.2944Z" fill="#69EBFC"/>
<path d="M23.1822 52.1841V52.4372C23.1822 53.6869 22.1655 54.7037 20.9151 54.7037H16.4724C15.2227 54.7037 14.206 53.6869 14.206 52.4372V52.1841H10.4933V53.5615C10.4933 55.5462 12.1015 57.1551 14.0862 57.1551H23.3013C25.286 57.1551 26.8949 55.5462 26.8949 53.5615V52.1841H23.1822Z" fill="#69EBFC"/>
<path d="M23.3013 38.5293H14.0862C12.1015 38.5293 10.4933 40.1383 10.4933 42.123V43.5003H14.206V43.2479C14.206 41.9975 15.222 40.9808 16.4724 40.9808H20.9151C22.1648 40.9808 23.1815 41.9975 23.1815 43.2479V43.5003H26.8942V42.123C26.8942 40.139 25.286 38.5293 23.3013 38.5293Z" fill="#69EBFC"/>
<path d="M24.0204 67.8552H13.3671C11.7861 67.8552 10.4933 66.5617 10.4933 64.9807C10.4933 63.3997 11.7861 62.1069 13.3671 62.1069H24.0204C25.6014 62.1069 26.8949 63.3997 26.8949 64.9807C26.8942 66.5617 25.6014 67.8552 24.0204 67.8552Z" fill="#8F95E6"/>
<path d="M33.7245 83.1038H13.3671C11.7861 83.1038 10.4933 81.811 10.4933 80.23C10.4933 78.649 11.7861 77.3562 13.3671 77.3562H33.7245C35.3048 77.3562 36.5982 78.649 36.5982 80.23C36.5982 81.811 35.3048 83.1038 33.7245 83.1038Z" fill="#8F95E6"/>
<path d="M42.8979 67.8552H32.2445C30.6642 67.8552 29.3707 66.5617 29.3707 64.9807C29.3707 63.3997 30.6642 62.1069 32.2445 62.1069H42.8979C44.4789 62.1069 45.7724 63.3997 45.7724 64.9807C45.7717 66.5617 44.4789 67.8552 42.8979 67.8552Z" fill="#8F95E6"/>
<path d="M61.7754 67.8552H51.1221C49.541 67.8552 48.2476 66.5617 48.2476 64.9807C48.2476 63.3997 49.541 62.1069 51.1221 62.1069H61.7754C63.3564 62.1069 64.6492 63.3997 64.6492 64.9807C64.6492 66.5617 63.3557 67.8552 61.7754 67.8552Z" fill="#8F95E6"/>
<path d="M80.6529 67.8552H69.9988C68.4185 67.8552 67.125 66.5617 67.125 64.9807C67.125 63.3997 68.4185 62.1069 69.9988 62.1069H80.6529C82.2332 62.1069 83.5267 63.3997 83.5267 64.9807C83.5267 66.5617 82.2332 67.8552 80.6529 67.8552Z" fill="#8F95E6"/>
<path d="M74.539 80.2308C74.539 84.3307 71.215 87.6541 67.1151 87.6541C63.0152 87.6541 59.6912 84.3307 59.6912 80.2308C59.6912 76.1302 63.0152 72.8069 67.1151 72.8069C71.215 72.8069 74.539 76.1302 74.539 80.2308Z" fill="#FF8354"/>
<path d="M83.5267 80.2308C83.5267 84.3307 80.2027 87.6541 76.1028 87.6541C72.0029 87.6541 68.6796 84.3307 68.6796 80.2308C68.6796 76.1302 72.0029 72.8069 76.1028 72.8069C80.2027 72.8069 83.5267 76.1302 83.5267 80.2308Z" fill="#69EBFC"/>
<path d="M68.6796 80.2306C68.6796 82.6391 69.8311 84.7729 71.6086 86.1295C73.3867 84.7729 74.5383 82.6391 74.5383 80.2306C74.5383 77.8215 73.3867 75.6876 71.6086 74.3311C69.8318 75.6876 68.6796 77.8215 68.6796 80.2306Z" fill="#D476E2"/>
<path d="M90.5972 44.7394H63.4734C61.5948 44.7394 60.0712 43.2165 60.0712 41.3372V20.4649C60.0712 18.5857 61.5948 17.062 63.4734 17.062H90.5972C92.4765 17.062 94.0002 18.5857 94.0002 20.4649V41.3372C94.0002 43.2165 92.4765 44.7394 90.5972 44.7394Z" fill="#69EBFC"/>
<path d="M77.0356 0C70.4469 0 65.0873 5.36038 65.0873 11.949V13.7846C65.0873 7.19593 70.4469 1.83555 77.0356 1.83555C83.6235 1.83555 88.9839 7.19593 88.9839 13.7846V11.949C88.9839 5.36038 83.6235 0 77.0356 0Z" fill="#69EBFC"/>
<path d="M82.4527 27.4436C82.4527 24.4515 80.0278 22.0266 77.0357 22.0266C74.0436 22.0266 71.6179 24.4515 71.6179 27.4436C71.6179 29.5108 72.7766 31.3062 74.4781 32.2197L71.9829 39.7755H82.0877L79.5925 32.2197C81.2947 31.3062 82.4527 29.5108 82.4527 27.4436Z" fill="#5FD4E3"/>
<path d="M69.4926 17.0622V13.7847C69.4926 9.62531 72.8762 6.24101 77.0356 6.24101C81.1942 6.24101 84.5785 9.62531 84.5785 13.7847V17.0622H88.9839V13.7847C88.9839 7.19607 83.6235 1.83569 77.0356 1.83569C70.4469 1.83569 65.0873 7.19607 65.0873 13.7847V17.0622H69.4926Z" fill="#5FD4E3"/>
</g>
<defs>
<clipPath id="clip0">
<rect width="94" height="94" fill="white"/>
</clipPath>
</defs>
</svg>
