<svg width="94" height="94" viewBox="0 0 94 94" fill="none" xmlns="http://www.w3.org/2000/svg">
<g clip-path="url(#clip0)">
<path d="M62.3384 21.4023V34.2743H67.459C69.3759 34.2743 70.9296 32.7204 70.9296 30.8036V24.8732C70.9296 22.9563 69.3757 21.4025 67.459 21.4025H62.3384V21.4023Z" fill="#9BC4F9"/>
<path d="M31.6615 21.4023V34.2743H26.5408C24.6239 34.2743 23.0702 32.7204 23.0702 30.8036V24.8732C23.0702 22.9563 24.6241 21.4025 26.5408 21.4025H31.6615V21.4023Z" fill="#9BC4F9"/>
<path d="M55.4412 51.0187V38.8899H38.5587V51.0187C38.5587 53.0822 37.1279 54.8593 35.1306 55.3184C35.1306 55.3184 35.5786 65.2903 47 65.2903C58.4213 65.2903 59.5917 55.4646 59.5917 55.4646L59.0226 55.355C56.9438 54.9549 55.4412 53.1357 55.4412 51.0187Z" fill="#FFDDCE"/>
<path d="M54.1861 59.5498C50.6718 61.7709 46.9999 63.6715 46.9999 63.6715C46.9999 63.6715 35.0292 55.3451 34.9773 55.3552L30.2964 56.2561C18.0182 58.619 9.14453 69.3633 9.14453 81.8667V87.6082C9.14453 91.1386 12.0064 94.0006 15.5369 94.0006H21.7844L22.3021 93.0865H24.1148L24.6215 94.0006H40.206L41.9083 92.1076H52.0923L53.794 94.0002H69.7409L70.1373 93.0861H72.5778L74.0752 92.3295V87.2937C74.0754 74.6012 65.9336 63.5237 54.1861 59.5498Z" fill="#E07F84"/>
<path d="M63.7037 56.2559L59.5919 55.4646C58.1477 57.0167 55.2246 58.9509 52.5579 60.5518C64.2394 63.3432 72.5655 73.8041 72.5655 85.9156V94.0002H78.4631C81.9934 94.0002 84.8555 91.1383 84.8555 87.6078V81.8665C84.8553 69.363 75.9817 58.6187 63.7037 56.2559Z" fill="#DB636E"/>
<path d="M33.1166 54.0561L29.1187 56.5077L38.3508 65.754C39.231 66.6108 40.6164 66.6635 41.559 65.8761L47 61.331L35.5613 54.0747C34.8169 53.6023 33.8682 53.5951 33.1166 54.0561Z" fill="#D84A54"/>
<path d="M60.8832 54.0561L64.8812 56.5077L55.649 65.754C54.7688 66.6108 53.3834 66.6635 52.4409 65.8761L46.9999 61.331L58.4385 54.0747C59.183 53.6023 60.1316 53.5951 60.8832 54.0561Z" fill="#D84A54"/>
<path d="M47 61.3311L41.6423 65.8056L44.3722 70.4942H47H49.6277L52.3576 65.8056L47 61.3311Z" fill="#D1ECF9"/>
<path d="M53.7942 94L49.6277 70.4941H47H44.3722L40.2057 94H53.7942Z" fill="#F2F9FF"/>
<path d="M24.6213 94.0001V85.8511C24.6213 85.0677 23.9863 84.4326 23.2029 84.4326C22.4195 84.4326 21.7844 85.0677 21.7844 85.8511V94.0001H24.6213Z" fill="#D84A54"/>
<path d="M72.578 94.0001V85.8511C72.578 85.0677 71.9429 84.4326 71.1595 84.4326C70.3761 84.4326 69.7411 85.0677 69.7411 85.8511V94.0001H72.578Z" fill="#D84A54"/>
<path d="M69.3682 71.3696H63.6948C62.2725 71.3696 61.1194 72.5226 61.1194 73.9451V75.4909C61.1194 76.9132 62.2724 78.0664 63.6948 78.0664H71.0535C71.5673 78.0664 72.0449 77.9142 72.4468 77.655C71.6714 75.4304 70.6339 73.3221 69.3682 71.3696Z" fill="#FFE07D"/>
<path d="M73.6289 75.4907V73.9448C73.6289 72.5225 72.476 71.3694 71.0535 71.3694H68.1316C69.5073 73.4152 70.5973 75.6613 71.3524 78.0472C72.6337 77.8991 73.6289 76.8118 73.6289 75.4907Z" fill="#FFC250"/>
<path d="M51.8393 46.3612C55.3233 43.2987 57.2402 38.803 57.3197 34.1403L57.2628 19.3377C57.229 11.245 51.8676 5.14789 44.9837 3.01416C36.8404 4.01658 29.8857 10.5529 29.9239 19.6907L29.9883 34.0718C30.1032 38.6009 32.0018 42.9524 35.4115 45.8989C37.7756 47.9419 40.9628 49.7553 45.0463 50.2422C47.7984 49.3784 50.0514 47.9326 51.8393 46.3612Z" fill="#FFDDCE"/>
<path d="M63.9966 19.5452C63.9557 9.73833 55.8631 2.94408 46.8907 2.8811C45.5682 2.90167 44.2649 3.07002 43.0034 3.37185C50.2299 5.09837 56.0375 11.2414 56.072 19.5454L56.1273 33.9264C56.0501 38.4562 54.1878 42.8239 50.8029 45.7993C48.8228 47.5397 46.2556 49.1219 43.0521 49.8877C44.3003 50.1861 45.6446 50.3607 47.0882 50.3708C52.1664 50.2916 56.0022 48.1948 58.7273 45.7994C62.1122 42.8241 63.9744 38.4564 64.0517 33.9266L63.9966 19.5452Z" fill="#FFCBBE"/>
<path d="M52.097 13.6067C53.5593 13.1744 55.0326 13.1097 56.2381 13.5079C54.3007 8.1953 49.8121 4.35121 44.4828 2.8641C42.1126 2.2028 40.2021 2.06712 38.7363 2.1569L36.9525 3.02695C36.8646 3.12701 36.7706 3.2412 36.6929 3.34916C36.4375 3.70423 36.0281 3.9216 35.5919 3.95465C33.7332 4.09528 32.2051 5.32775 31.7456 6.96705C31.5973 7.49599 31.2042 7.93459 30.6552 8.14224C28.608 8.91682 27.1684 10.7917 27.1782 12.9761C27.1798 13.3578 27.0234 13.7244 26.7445 14.0073C26.0323 14.7296 25.5974 15.6929 25.5974 16.7509V21.0939C25.5974 22.3061 26.5661 23.2964 27.7781 23.3231C28.9902 23.3497 29.9589 24.34 29.9589 25.5522V27.9004H32.2874C33.8167 27.9004 35.0556 26.6591 35.0525 25.1298L35.038 17.7607C35.038 13.6111 38.4626 12.5898 41.9024 13.6069C44.9678 14.5131 49.0253 14.5151 52.097 13.6067Z" fill="#756E78"/>
<path d="M67.2547 14.0071C66.9758 13.7244 66.8192 13.3577 66.8211 12.9759C66.831 10.7915 65.3912 8.9166 63.344 8.14202C62.795 7.93419 62.4018 7.49577 62.2536 6.96683C61.7941 5.32752 60.266 4.09506 58.4073 3.95443C57.9711 3.92138 57.5619 3.704 57.3063 3.34893C56.5253 2.26298 55.1979 1.54733 53.6893 1.54733C53.2788 1.54733 52.8823 1.6013 52.5065 1.70118C51.8877 1.8655 51.2327 1.70155 50.7928 1.26863C49.5236 0.0194609 48.141 0 46.9999 0H46.9997C45.7241 0 44.4428 0.0521406 43.2069 1.26863C42.767 1.70155 42.1119 1.8655 41.4932 1.70118C41.1174 1.6013 40.7208 1.54733 40.3103 1.54733C38.9571 1.54733 37.7508 2.12436 36.9528 3.02691C37.6168 2.94117 38.2888 2.8916 38.9659 2.88095C45.8569 2.92942 52.2281 6.94847 54.8324 13.2529C57.1343 13.3777 58.9614 14.7229 58.9614 17.7605L58.9469 25.1296C58.9438 26.6589 60.1827 27.9002 61.712 27.9002H64.0405V25.552C64.0405 24.3398 65.0092 23.3495 66.2213 23.3228C67.4334 23.2962 68.402 22.3059 68.402 21.0936V16.7507C68.4016 15.6927 67.9669 14.7294 67.2547 14.0071Z" fill="#665E66"/>
<path d="M68.0926 34.2135V36.5337C68.0926 38.3862 66.5855 39.8933 64.7331 39.8933H59.0925C58.3089 39.8933 57.6741 40.5284 57.6741 41.3118C57.6741 42.0952 58.3091 42.7302 59.0925 42.7302H64.7331C68.1499 42.7302 70.9297 39.9504 70.9297 36.5335V30.8032C70.9297 32.5033 69.7064 33.9153 68.0926 34.2135Z" fill="#DBE8F9"/>
<path d="M58.7835 43.7629H54.8649C53.3699 43.7629 52.158 42.551 52.158 41.056C52.158 39.561 53.3699 38.3491 54.8649 38.3491H58.7835C60.2785 38.3491 61.4904 39.561 61.4904 41.056C61.4904 42.551 60.2785 43.7629 58.7835 43.7629Z" fill="#DB636E"/>
</g>
<defs>
<clipPath id="clip0">
<rect width="94" height="94" fill="white"/>
</clipPath>
</defs>
</svg>
