<svg width="94" height="94" viewBox="0 0 94 94" fill="none" xmlns="http://www.w3.org/2000/svg">
<g clip-path="url(#clip0)">
<path d="M59.0132 36.8069H76.3234C77.1746 36.8069 77.9678 37.2401 78.4275 37.9565L85.5038 48.9929C85.8602 49.5487 86.4224 49.941 87.0672 50.0837L92.0407 51.4392C93.1853 51.6923 94 52.7071 94 53.8789V70.8076C94 72.1881 92.8812 73.3069 91.5007 73.3069H59.0132V36.8069Z" fill="#FF4755"/>
<path d="M92.0413 51.4392L87.0671 50.0837C86.4223 49.941 85.8601 49.5487 85.5037 48.9929L78.4274 37.9565C77.9677 37.2401 77.1752 36.8069 76.324 36.8069H69.2441L79.7821 52.9172C80.1393 53.473 80.7008 53.8653 81.3456 54.008L86.3198 55.3635C87.4644 55.6173 88.2784 56.6314 88.2784 57.804V73.3069H91.5013C92.8811 73.3069 93.9999 72.1881 93.9999 70.8083V53.8789C93.9999 52.7071 93.1852 51.6923 92.0413 51.4392Z" fill="#E61F2D"/>
<path d="M0 70.7705C0 72.1711 1.13599 73.3071 2.53661 73.3071H60.8377V59.6157H0L0 70.7705Z" fill="#8EBAC5"/>
<path d="M55.1641 59.6147H60.8375V73.3068H55.1641V59.6147Z" fill="#7CA1B1"/>
<path d="M60.8377 61.3131H0V14.0005C0 13.0617 0.76091 12.3008 1.69968 12.3008H59.138C60.0768 12.3008 60.8377 13.0617 60.8377 14.0005V61.3131Z" fill="#EAB765"/>
<path d="M59.1381 12.3008H53.4646C54.4034 12.3008 55.1643 13.0617 55.1643 14.0005V61.3131H60.8378V14.0005C60.8378 13.0617 60.0768 12.3008 59.1381 12.3008Z" fill="#D9AB5E"/>
<path d="M80.6386 51.1216L75.7984 43.1332C75.5804 42.7731 75.1896 42.553 74.7686 42.553H66.2666C65.6018 42.553 65.0625 43.0923 65.0625 43.7571V51.7456C65.0625 52.4111 65.6018 52.9497 66.2666 52.9497H79.6087C80.5475 52.9497 81.1248 51.9242 80.6386 51.1216Z" fill="#2DD2E3"/>
<path d="M94 70.8076V67.1135H89.261C87.841 67.1135 86.6899 68.2653 86.6899 69.6853V73.3069H91.5014C92.8812 73.3069 94 72.1882 94 70.8076Z" fill="#FFF156"/>
<path d="M16.4217 81.8534C11.7092 81.8534 7.87524 78.0194 7.87524 73.3069C7.87524 68.5945 11.7092 64.7605 16.4217 64.7605C21.1342 64.7605 24.9681 68.5945 24.9681 73.3069C24.9681 78.0194 21.1342 81.8534 16.4217 81.8534Z" fill="#384949"/>
<path d="M16.4216 76.5535C14.6316 76.5535 13.175 75.0969 13.175 73.3069C13.175 71.5169 14.6316 70.0603 16.4216 70.0603C18.2117 70.0603 19.6682 71.5169 19.6682 73.3069C19.6682 75.0969 18.2117 76.5535 16.4216 76.5535Z" fill="#DEECF1"/>
<path d="M73.7422 81.8534C69.0298 81.8534 65.1958 78.0194 65.1958 73.3069C65.1958 68.5945 69.0298 64.7605 73.7422 64.7605C78.4547 64.7605 82.2887 68.5945 82.2887 73.3069C82.2887 78.0194 78.4547 81.8534 73.7422 81.8534Z" fill="#384949"/>
<path d="M73.7422 76.5535C71.9522 76.5535 70.4963 75.0969 70.4963 73.3069C70.4963 71.5169 71.9522 70.0603 73.7422 70.0603C75.5323 70.0603 76.9888 71.5169 76.9888 73.3069C76.9888 75.0969 75.5323 76.5535 73.7422 76.5535Z" fill="#DEECF1"/>
<path d="M23.2002 34.796L28.8887 30.2887C29.4116 29.8741 30.151 29.8741 30.6738 30.2887L36.3623 34.796C37.3039 35.5419 38.6909 34.8713 38.6909 33.6701V12.3008H20.8716V33.6701C20.8716 34.8713 22.2586 35.5419 23.2002 34.796Z" fill="#FF8709"/>
<path d="M53.1784 48.5656H42.2718C41.488 48.5656 40.8533 47.9302 40.8533 47.1471C40.8533 46.3639 41.488 45.7285 42.2718 45.7285H53.1784C53.9616 45.7285 54.597 46.3639 54.597 47.1471C54.597 47.9302 53.9623 48.5656 53.1784 48.5656Z" fill="#FFF3DE"/>
<path d="M53.1784 55.4689H42.2718C41.488 55.4689 40.8533 54.8335 40.8533 54.0504C40.8533 53.2665 41.488 52.6318 42.2718 52.6318H53.1784C53.9616 52.6318 54.597 53.2672 54.597 54.0504C54.597 54.8335 53.9623 55.4689 53.1784 55.4689Z" fill="#FFF3DE"/>
</g>
<defs>
<clipPath id="clip0">
<rect width="94" height="94" fill="white"/>
</clipPath>
</defs>
</svg>
